<svg xmlns="http://www.w3.org/2000/svg" xmlns:xlink="http://www.w3.org/1999/xlink" viewBox="0 0 421.68 422.9"><defs><style>.cls-1{fill:url(#linear-gradient);}.cls-2{fill:url(#linear-gradient-2);}.cls-3{fill:url(#linear-gradient-3);}</style><linearGradient id="linear-gradient" x1="5.37" y1="88.83" x2="348.28" y2="88.83" gradientTransform="translate(-1 1)" gradientUnits="userSpaceOnUse"><stop offset="0" stop-color="#2af6ff"/><stop offset="0.16" stop-color="#27f1fb"/><stop offset="0.34" stop-color="#20e4ef"/><stop offset="0.53" stop-color="#13cddc"/><stop offset="0.73" stop-color="#01aec1"/><stop offset="0.74" stop-color="#00acbf"/><stop offset="0.76" stop-color="#00afbf"/><stop offset="0.87" stop-color="#00b1bf"/><stop offset="0.98" stop-color="#00b1bf"/><stop offset="1" stop-color="#00b1bf"/></linearGradient><linearGradient id="linear-gradient-2" x1="419.7" y1="219.04" x2="151.92" y2="219.04" gradientTransform="translate(1.73 0.34) rotate(-0.07)" xlink:href="#linear-gradient"/><linearGradient id="linear-gradient-3" x1="62.03" y1="361.2" x2="232.67" y2="190.57" gradientTransform="translate(0.76 -0.34) rotate(0.17)" xlink:href="#linear-gradient"/></defs><title>Asset 2</title><g id="Layer_2" data-name="Layer 2"><g id="Layer_1-2" data-name="Layer 1"><path class="cls-1" d="M302,21.4l-3.88-2.8c-106.29-47.77-231.19-.33-279,106A211.44,211.44,0,0,0,4.37,171.1c58.17-76,162.89-105,254-64a210,210,0,0,1,87.18,72.59A211.38,211.38,0,0,0,302,21.4Z"/><path class="cls-2" d="M343,46.67a212,212,0,0,0-41.29-26.06c58.79,75.5,60.33,184.14-2.3,261.89a210.37,210.37,0,0,1-145.37,77.78A210.78,210.78,0,0,0,254,417.5a210.1,210.1,0,0,0,121-74.15C448.1,252.6,433.79,119.77,343,46.67Z"/><path class="cls-3" d="M96,211.49A210,210,0,0,1,134.12,91.58,211.24,211.24,0,0,0,4.35,169.1,211.59,211.59,0,0,0,0,211.28C-.34,327.82,93.86,422.56,210.39,422.9a212.87,212.87,0,0,0,31.73-2.29l1.49-.23,2.68-.43c3.76-.66,7.48-1.4,11.17-2.25C164.42,395.32,95.5,311.33,96,211.49Z"/></g></g></svg>